<svg width="85" height="85" viewBox="0 0 85 85" fill="none" xmlns="http://www.w3.org/2000/svg">
<path d="M40.4879 1.16984C63.0689 0.06559 82.2639 17.4878 83.3464 40.0698C84.4289 62.6518 66.9879 81.8298 44.4049 82.8903C21.8529 83.9491 2.70686 66.5376 1.62586 43.9866C0.545362 21.4358 17.9381 2.27284 40.4879 1.17009" fill="#0C5228"/>
<path d="M41.3334 2.79936C63.0082 2.16511 81.0952 19.2186 81.7354 40.8934C82.3757 62.5681 65.3277 80.6599 43.6532 81.3064C21.9697 81.9534 3.86916 64.8966 3.22841 43.2131C2.58766 21.5296 19.6497 3.43386 41.3334 2.79936Z" fill="#57C579"/>
<path d="M41.6376 5.93861C61.5894 5.47611 78.1364 21.2801 78.5904 41.2321C79.0444 61.1841 63.2336 77.7241 43.2816 78.1699C23.3411 78.6154 6.8129 62.8161 6.35915 42.8759C5.9054 22.9356 21.6976 6.40086 41.6376 5.93861Z" fill="#0C5228"/>
<path d="M41.6909 7.03139C61.0409 6.59914 77.0839 21.9226 77.5396 41.2719C77.9954 60.6214 62.6916 76.6831 43.3429 77.1626C23.9604 77.6426 7.86486 62.3069 7.40836 42.9239C6.95186 23.5409 22.3074 7.46414 41.6909 7.03139Z" fill="#57C579"/>
<path d="M42.206 7.88394C61.1302 7.73169 76.592 22.9554 76.7335 41.8797C76.875 60.8039 61.6425 76.2572 42.718 76.3879C23.8087 76.5184 8.37099 61.3009 8.22949 42.3919C8.08824 23.4827 23.297 8.03619 42.206 7.88394Z" fill="#DDF8DE"/>
<path d="M50.8478 26.5229C53.1 26.3341 55.1418 26.7736 56.947 28.1831C59.5235 30.1954 60.72 33.4281 61.0945 36.5844C61.5733 40.6191 61.112 45.5961 58.4953 48.8919C57.0435 50.7204 55.1305 51.7094 52.8275 51.9679C52.8204 51.9695 52.813 51.9712 52.8055 51.9729C50.6113 52.2746 48.0465 51.6366 46.3035 50.2644C43.9228 48.3901 42.9148 45.2296 42.567 42.3324C42.0768 38.2484 42.5375 33.0104 45.1755 29.6646C46.5883 27.8729 48.588 26.7859 50.8478 26.5229Z" fill="#0C5228"/>
<path d="M51.4356 27.4635C51.4839 27.4588 51.5323 27.455 51.5808 27.452C53.4831 27.3345 55.3966 28.0517 56.8101 29.314C59.2873 31.5257 60.1141 34.9817 60.2931 38.1735C60.4886 41.6552 59.8406 46.0085 57.4178 48.6975C56.0826 50.1797 54.3598 50.9055 52.3888 51.004C50.3601 51.0752 48.4228 50.7672 46.8106 49.4242C44.5258 47.5212 43.7093 44.4472 43.4413 41.6045C43.0858 37.8342 43.5296 33.107 46.0478 30.0795C47.4448 28.3995 49.3028 27.654 51.4356 27.4635Z" fill="#57C579"/>
<path d="M51.3418 31.0797C52.0213 31.0327 52.5588 31.0612 53.1516 31.4335C54.2236 32.107 54.7788 33.414 55.0541 34.6022C55.6843 37.3245 55.7836 43.4712 54.2536 45.872C53.7491 46.6632 53.0518 47.1657 52.1373 47.3702C51.4823 47.419 50.8836 47.3197 50.3093 46.985C49.2848 46.3877 48.8543 45.261 48.5633 44.1692C47.7801 41.2297 47.7626 35.4107 49.3386 32.7245C49.7988 31.94 50.4491 31.3187 51.3418 31.0797Z" fill="#0C5228"/>
<path d="M51.4867 32.0756C51.8429 32.0383 52.1522 32.0566 52.4722 32.2331C53.3074 32.6941 53.7672 33.6981 54.0129 34.5756C54.6892 36.9901 54.7429 43.0386 53.4739 45.2366C53.1237 45.8431 52.6967 46.2318 52.0164 46.4076C51.7392 46.4173 51.4784 46.4248 51.2127 46.3296C50.5742 46.1006 50.1229 45.5328 49.8397 44.9381C48.6947 42.5346 48.8632 36.7583 49.7549 34.2421C50.0904 33.2951 50.5617 32.5193 51.4867 32.0756Z" fill="#DDF8DE"/>
<path d="M32.5137 26.5283C33.0765 26.5391 33.6402 26.5436 34.198 26.6248C36.3317 26.9353 38.231 27.9808 39.5167 29.7308C40.149 30.5916 40.8947 31.9621 40.7067 33.0536C40.6605 33.3218 40.5315 33.5438 40.3025 33.6946C39.8957 33.9621 35.9337 34.8383 35.4797 34.7238C34.9877 34.5998 34.7417 33.7806 34.524 33.3746C34.2182 32.8046 33.7537 32.2418 33.11 32.0556C32.5605 31.8966 31.9602 32.0161 31.4715 32.2966C29.933 33.1803 29.4502 34.9993 29.034 36.5928C31.1185 35.4206 32.8952 34.7271 35.348 35.2613C36.3115 35.471 37.2237 35.8704 38.0315 36.436C38.8393 37.0016 39.5264 37.7223 40.053 38.5561C41.4262 40.7233 41.5167 43.2623 40.9742 45.7048C40.5712 47.0448 39.9695 48.2638 39.0252 49.3091C37.4117 51.0948 35.2867 51.8846 32.9232 52.0053C30.3477 52.1368 27.772 51.5291 25.8267 49.7648C23.4292 47.5901 22.5642 44.1568 22.4165 41.0326C22.228 37.0418 23.0405 32.4898 25.8262 29.4518C27.5922 27.5256 29.9425 26.6396 32.5137 26.5283Z" fill="#0C5228"/>
<path d="M32.031 27.526C33.5587 27.4077 35.0527 27.618 36.417 28.3545C38.2265 29.3317 39.233 30.8755 39.8037 32.799C38.4857 33.139 37.151 33.4282 35.8255 33.7392C35.6247 33.191 35.3432 32.6637 34.959 32.222C34.3752 31.5507 33.5842 31.088 32.6852 31.037C31.744 30.9832 30.918 31.3775 30.2365 32.0052C28.4002 33.6967 28.0857 36.2425 27.991 38.5942C28.41 38.3015 28.7892 37.9512 29.1972 37.6425C30.3827 36.745 31.7397 36.1927 33.2302 36.0872C34.9947 35.962 36.7327 36.4987 38.0712 37.6697C39.5895 38.9977 40.226 40.8097 40.3477 42.7665C40.4633 44.8521 39.7815 46.9037 38.4405 48.5052C37.1175 50.062 35.339 50.821 33.3367 50.9835C30.9467 51.1772 28.4695 50.7755 26.597 49.1762C24.418 47.3152 23.6167 44.3227 23.4057 41.5705C23.12 37.8417 23.7432 33.332 26.2662 30.4017C27.7987 28.622 29.7015 27.7035 32.031 27.526Z" fill="#57C579"/>
<path d="M32.1751 39.4004C33.0394 39.4259 33.8531 39.7099 34.4956 40.3019C35.2731 41.0186 35.6089 42.0254 35.6531 43.0609C35.7036 44.2341 35.5044 45.4016 34.6776 46.2899C33.9959 47.0224 33.1009 47.3546 32.1164 47.3876C31.2714 47.3774 30.4601 47.1076 29.8014 46.5706C29.0556 45.9624 28.6466 45.0799 28.5514 44.1329C28.4321 42.9456 28.5876 41.6659 29.3809 40.7264C30.0956 39.8799 31.0929 39.4834 32.1751 39.4004Z" fill="#0C5228"/>
<path d="M31.7931 40.3877C32.4721 40.3562 33.0536 40.4219 33.6186 40.8317C34.2273 41.2734 34.5643 41.9457 34.6756 42.6782C34.8156 43.5979 34.7098 44.6552 34.1433 45.4222C33.6898 46.0357 33.1201 46.3254 32.3783 46.4339C31.8398 46.4482 31.3518 46.3867 30.8691 46.1309C30.2113 45.7824 29.7541 45.1677 29.5471 44.4589C29.2931 43.5887 29.3863 42.5322 29.8368 41.7399C30.2813 40.9587 30.9558 40.6159 31.7931 40.3877Z" fill="#DDF8DE"/>
<path d="M43.6027 57.0785C43.651 57.0727 43.6996 57.0675 43.7485 57.063C44.6697 56.979 45.5785 57.109 46.3032 57.726C47.2085 58.4968 47.4727 59.7038 47.5522 60.8388C47.65 62.2373 47.438 64.017 46.4827 65.097C45.928 65.7243 45.1505 66.0663 44.3195 66.1118C43.3442 66.1653 42.5215 65.8883 41.7945 65.2405C41.5595 64.9503 41.331 64.6343 41.2755 64.2535C41.2592 64.1415 41.284 64.0205 41.3572 63.932C41.9965 63.1613 43.6052 64.0075 44.396 63.8895C44.7965 63.6595 44.919 63.3325 45.104 62.9308C44.878 63.009 44.6387 63.0763 44.4037 63.1203C43.6415 63.2625 42.8312 63.1235 42.1892 62.6788C41.5812 62.2575 41.2127 61.6423 41.0807 60.9185C40.9167 60.02 41.054 58.998 41.5912 58.2428C42.0802 57.5553 42.7872 57.2115 43.6027 57.0785Z" fill="#0C5228"/>
<path d="M43.9229 57.585C44.5999 57.5158 45.3261 57.6445 45.8701 58.0715C46.6074 58.65 46.8661 59.559 46.9696 60.4533C47.1299 61.8368 46.9941 63.5668 46.0964 64.6828C45.7011 65.1738 44.9806 65.542 44.3464 65.5833C43.5981 65.632 42.6739 65.3165 42.1231 64.8065C41.9796 64.6735 41.9021 64.5643 41.8924 64.368C41.9749 64.1765 42.0419 64.1743 42.2219 64.0795C42.7521 64.06 43.2389 64.3683 43.7636 64.4463C44.2084 64.5125 44.6169 64.4385 44.9771 64.1598C45.3551 63.867 45.5396 63.1738 45.5924 62.7155C45.6194 62.4823 45.6236 62.288 45.4719 62.0958C45.1951 62.0648 44.4851 62.5263 44.0789 62.5923C43.7998 62.6352 43.515 62.6214 43.2414 62.5517C42.9679 62.4821 42.7111 62.3579 42.4866 62.1868C41.9611 61.7895 41.6399 61.2035 41.5556 60.553C41.4644 59.8498 41.6284 59.125 42.0644 58.5603C42.5556 57.9238 43.1436 57.684 43.9229 57.585Z" fill="#57C579"/>
<path d="M43.8833 58.7015C44.1208 58.6703 44.3813 58.649 44.6123 58.7235C44.7948 58.7812 44.964 58.8743 45.1104 58.9976C45.2567 59.1208 45.3772 59.2718 45.4651 59.4418C45.5581 59.623 45.614 59.8209 45.6297 60.024C45.6453 60.2271 45.6203 60.4312 45.5561 60.6245C45.3933 61.1023 45.0748 61.3423 44.6366 61.5548C44.3808 61.5905 44.1208 61.592 43.8628 61.6015C43.5396 61.432 43.2806 61.2435 43.1031 60.916C43.0009 60.7287 42.9377 60.5226 42.9174 60.3103C42.897 60.0979 42.9199 59.8836 42.9846 59.6803C43.1396 59.1968 43.4486 58.9335 43.8833 58.7015Z" fill="#0C5228"/>
<path d="M44.2618 59.1885C44.3186 59.2012 44.3751 59.2145 44.4303 59.233C44.6821 59.3167 44.9108 59.539 45.0131 59.7827C45.1093 60.012 45.0978 60.2682 45.0021 60.496C44.8591 60.837 44.6026 60.958 44.2803 61.0787C44.1866 61.0612 44.0883 61.043 43.9996 61.0072C43.8021 60.9272 43.6223 60.7445 43.5411 60.5485C43.4333 60.2882 43.4638 60.0047 43.5803 59.753C43.7246 59.441 43.9533 59.2987 44.2618 59.1885Z" fill="#DDF8DE"/>
<path d="M36.5804 57.0829C36.72 57.0662 36.8602 57.0543 37.0007 57.0474C37.8739 57.0104 38.6611 57.1982 39.3156 57.8042C40.1926 58.6157 40.4382 59.8992 40.4842 61.0442C40.5399 62.4277 40.3387 64.1367 39.3517 65.1802C38.7537 65.8122 37.9559 66.0927 37.0977 66.1062C36.1084 66.1217 35.3379 65.8019 34.6329 65.1142C34.4614 64.8922 34.3141 64.6517 34.2494 64.3754C34.2076 64.1972 34.2244 64.0912 34.3161 63.9339C35.2836 63.1079 36.5296 64.1022 37.2876 63.8854C37.6881 63.7707 37.8959 63.3049 38.0584 62.9639C37.7951 63.0332 37.5287 63.0902 37.2601 63.1347C36.5014 63.2574 35.7029 63.1297 35.0772 62.6657C34.4512 62.2017 34.1042 61.4892 33.9922 60.7294C33.8639 59.8599 34.0309 58.8692 34.5749 58.1604C35.0819 57.4999 35.7734 57.1934 36.5804 57.0829Z" fill="#0C5228"/>
<path d="M36.7794 57.5813C37.4554 57.5351 38.1266 57.6113 38.6921 58.0118C39.4049 58.5168 39.7216 59.3288 39.8559 60.1638C40.0769 61.5373 40.0126 63.3761 39.1679 64.5241C38.7479 65.0946 38.1854 65.4268 37.4839 65.5208C36.7039 65.6256 35.8176 65.4031 35.1924 64.9181C35.0031 64.7713 34.8721 64.6288 34.8431 64.3866C34.9134 64.1871 34.9749 64.1883 35.1539 64.0868C36.1059 64.0071 36.6246 64.7761 37.6954 64.2696C38.0404 64.1063 38.2576 63.8438 38.3769 63.4853C38.4991 63.1178 38.6669 62.5321 38.4846 62.1663C38.4474 62.1446 38.4159 62.1033 38.3726 62.1016C38.2431 62.0963 37.3551 62.5241 37.0664 62.5748C36.5046 62.6736 35.8206 62.5666 35.3524 62.2273C34.8284 61.8476 34.6076 61.2021 34.5151 60.5866C34.4031 59.8408 34.5431 59.1351 35.0024 58.5281C35.4589 57.9248 36.0464 57.6798 36.7794 57.5813Z" fill="#57C579"/>
<path d="M36.9698 58.6946C37.1985 58.6846 37.4023 58.6758 37.6193 58.7631C37.797 58.8329 37.9585 58.9382 38.094 59.0727C38.2294 59.2072 38.336 59.3679 38.407 59.5451C38.4896 59.745 38.5307 59.9596 38.528 60.1758C38.5253 60.3921 38.4788 60.6056 38.3913 60.8033C38.2003 61.2248 37.889 61.4366 37.474 61.5966C37.202 61.6096 36.9225 61.6413 36.6688 61.5206C36.3328 61.3606 36.0825 61.0761 35.9558 60.7273C35.8088 60.3231 35.8213 59.8606 36.007 59.4713C36.2153 59.0358 36.5328 58.8556 36.9698 58.6946Z" fill="#0C5228"/>
<path d="M37.035 59.1631C37.1225 59.1693 37.2105 59.1761 37.2963 59.1943C37.5188 59.2413 37.737 59.4296 37.8513 59.6216C37.9985 59.8693 38.012 60.1631 37.937 60.4363C37.8405 60.7883 37.6155 60.9461 37.3125 61.1043C37.2613 61.1076 37.2328 61.1116 37.184 61.1083C36.9683 61.0938 36.7208 60.9601 36.5868 60.7913C36.41 60.5688 36.3933 60.3068 36.43 60.0368C36.4883 59.6101 36.7123 59.4083 37.035 59.1631Z" fill="#DDF8DE"/>
<path d="M37.0765 14.775C37.2832 14.7667 37.4907 14.78 37.697 14.7952C38.4837 14.8542 39.1762 15.184 39.691 15.789C40.5655 16.8172 40.6727 18.406 40.5752 19.7032C40.4845 20.9117 40.1572 22.269 39.1952 23.0832C38.5102 23.663 37.638 23.82 36.7632 23.7422C35.819 23.6587 35.1337 23.2607 34.5312 22.5407C34.4797 22.446 34.4235 22.348 34.3855 22.247C34.3217 22.0777 34.3125 21.923 34.3942 21.7577C35.0697 20.393 36.588 21.878 37.4062 21.5402C37.8152 21.3717 37.9862 20.9202 38.149 20.5457C37.8257 20.6485 37.5092 20.7435 37.1695 20.7717C36.3782 20.837 35.578 20.6517 34.967 20.1257C34.3855 19.625 34.1117 18.8957 34.0565 18.1445C33.9927 17.2755 34.1877 16.368 34.7767 15.7027C35.4027 14.9955 36.1807 14.8385 37.0765 14.775Z" fill="#0C5228"/>
<path d="M36.5526 15.323C37.3236 15.263 38.1011 15.2405 38.7686 15.6965C39.4879 16.1878 39.8096 16.9598 39.9544 17.7915C40.1941 19.1705 40.0856 21.0205 39.2429 22.1825C38.8446 22.7318 38.2661 23.0985 37.5939 23.2015C36.8254 23.3195 36.0589 23.1515 35.4339 22.687C35.1991 22.5125 34.9166 22.2845 34.8699 21.9828C35.5924 21.4703 36.0649 22.0183 36.8029 22.1258C37.2589 22.1923 37.6686 22.0623 38.0336 21.7865C38.4061 21.505 38.5914 20.8523 38.6436 20.407C38.6709 20.1725 38.6746 19.982 38.5214 19.7885C38.2071 19.7343 37.6916 20.0843 37.3701 20.176C36.7899 20.3418 36.1919 20.2645 35.6716 19.9618C35.1449 19.6555 34.7966 19.1618 34.6466 18.5733C34.4651 17.8608 34.5551 17.0458 34.9444 16.4163C35.3194 15.8093 35.8716 15.4843 36.5526 15.323Z" fill="#57C579"/>
<path d="M37.01 16.3807C37.2355 16.3699 37.475 16.3624 37.69 16.4399C37.8743 16.5048 38.0435 16.6064 38.1874 16.7385C38.3313 16.8706 38.4469 17.0306 38.5273 17.2087C38.6904 17.5776 38.7012 17.9961 38.5573 18.3729C38.367 18.8624 38.025 19.1004 37.559 19.3039C37.3223 19.3207 37.0653 19.3214 36.839 19.2414C36.66 19.1774 36.4964 19.0766 36.3586 18.9455C36.2209 18.8145 36.1121 18.656 36.0393 18.4804C35.8755 18.0944 35.8828 17.6304 36.0455 17.2454C36.242 16.7802 36.5558 16.5654 37.01 16.3807Z" fill="#0C5228"/>
<path d="M37.1599 16.8721C37.1936 16.8751 37.2271 16.8781 37.2606 16.8831C37.5341 16.9231 37.8081 17.0803 37.9611 17.3138C38.1124 17.5448 38.1339 17.8296 38.0566 18.0913C37.9524 18.4451 37.7289 18.6106 37.4269 18.7831C37.3376 18.7806 37.2451 18.7778 37.1576 18.7588C36.9346 18.7101 36.6949 18.5288 36.5776 18.3351C36.4421 18.1106 36.4386 17.8458 36.5051 17.5983C36.6041 17.2306 36.8514 17.0531 37.1599 16.8721Z" fill="#DDF8DE"/>
<path d="M48.6872 57.3831C48.8099 57.2721 48.8612 57.2381 49.0344 57.2176C49.5232 57.1591 50.0674 57.2081 50.5639 57.2054C51.4642 57.2006 52.3784 57.1636 53.2777 57.2084C53.4639 57.2179 53.5847 57.2354 53.7299 57.3551L53.7582 57.5044C53.8774 58.0104 53.7632 58.6194 53.7712 59.1404L53.6502 59.2961C53.1567 59.5321 51.2909 59.3979 50.6634 59.3941C50.5872 59.6376 50.5399 59.8994 50.4802 60.1481C50.8049 60.0819 51.1414 60.0551 51.4729 60.0476C52.1954 60.0314 52.9299 60.2131 53.4624 60.7251C54.0479 61.2886 54.2612 62.1351 54.2607 62.9256C54.2602 63.7951 53.9784 64.6806 53.3469 65.2986C52.7114 65.9204 51.8404 66.1751 50.9652 66.1509C50.0507 66.1259 49.1642 65.8044 48.5342 65.1239C48.3037 64.8749 48.1042 64.5654 48.1314 64.2106C48.1499 63.9729 48.2799 63.7524 48.4619 63.6019C49.4824 62.7584 50.0057 63.8371 50.7504 63.9026C50.8812 63.9149 51.013 63.8988 51.137 63.8555C51.2609 63.8121 51.3741 63.7425 51.4687 63.6514C51.6507 63.4759 51.8087 63.2251 51.8082 62.9671C51.8077 62.7209 51.6867 62.3654 51.5012 62.1984C51.0204 61.7659 49.8859 62.6199 49.2892 62.6611C48.9009 62.6881 48.6014 62.5699 48.3137 62.3134C48.1552 61.7644 48.4204 57.8704 48.6872 57.3831Z" fill="#57C579"/>
<path d="M48.6872 57.3828C48.7814 57.5106 48.8522 57.5403 48.9967 57.6018C49.0617 57.6296 49.1122 57.6616 49.1674 57.7048C49.1359 57.7406 49.0939 57.7696 49.0727 57.8123C49.0157 57.9276 48.7017 61.4158 48.7277 61.6908C48.7374 61.7948 48.7632 61.8726 48.8052 61.9673C48.9654 62.0868 49.0632 62.1221 49.2739 62.0963C50.0652 61.9988 51.0139 61.1606 51.8169 61.7023C52.1282 61.9121 52.2387 62.2986 52.2934 62.6493C52.3624 63.0928 52.3162 63.4858 52.0382 63.8528C51.7927 64.1771 51.4049 64.3828 51.0024 64.4303C50.3609 64.5056 49.8059 64.0736 49.2869 63.7628C49.0734 63.8801 48.8599 63.9698 48.7319 64.1861C48.6852 64.3796 48.7087 64.5306 48.8197 64.6996C49.1372 65.1843 49.9362 65.4713 50.4812 65.5631C51.2399 65.6908 52.1262 65.5628 52.7569 65.1006C53.3057 64.6981 53.5967 64.0368 53.6892 63.3761C53.7834 62.7033 53.6827 61.8726 53.2627 61.3163C52.9412 60.8903 52.4709 60.6961 51.9524 60.6333C51.2267 60.5451 50.4027 60.9316 49.9704 60.8691C49.7992 60.3996 50.0354 59.3273 50.1682 58.8421C50.7984 58.8606 52.8657 59.0256 53.3457 58.8258C53.4017 58.9618 53.4042 59.0463 53.5544 59.1021C53.6184 59.1258 53.7032 59.1306 53.7712 59.1401L53.6502 59.2958C53.1567 59.5318 51.2909 59.3976 50.6634 59.3938C50.5872 59.6373 50.5399 59.8991 50.4802 60.1478C50.8049 60.0816 51.1414 60.0548 51.4729 60.0473C52.1954 60.0311 52.9299 60.2128 53.4624 60.7248C54.0479 61.2883 54.2612 62.1348 54.2607 62.9253C54.2602 63.7948 53.9784 64.6803 53.3469 65.2983C52.7114 65.9201 51.8404 66.1748 50.9652 66.1506C50.0507 66.1256 49.1642 65.8041 48.5342 65.1236C48.3037 64.8746 48.1042 64.5651 48.1314 64.2103C48.1499 63.9726 48.2799 63.7521 48.4619 63.6016C49.4824 62.7581 50.0057 63.8368 50.7504 63.9023C50.8812 63.9146 51.013 63.8985 51.137 63.8551C51.2609 63.8118 51.3741 63.7422 51.4687 63.6511C51.6507 63.4756 51.8087 63.2248 51.8082 62.9668C51.8077 62.7206 51.6867 62.3651 51.5012 62.1981C51.0204 61.7656 49.8859 62.6196 49.2892 62.6608C48.9009 62.6878 48.6014 62.5696 48.3137 62.3131C48.1552 61.7641 48.4204 57.8701 48.6872 57.3828Z" fill="#0C5228"/>
<path d="M48.6855 57.3831C48.8083 57.2721 48.8595 57.2381 49.0328 57.2176C49.5215 57.1591 50.0658 57.2081 50.5623 57.2054C51.4625 57.2006 52.3768 57.1636 53.276 57.2084C53.4623 57.2179 53.583 57.2354 53.7283 57.3551L53.7565 57.5044C53.57 57.6431 53.476 57.4976 53.3038 57.6519C52.219 57.8074 50.3243 57.6981 49.1658 57.7051C49.1137 57.6634 49.0563 57.6287 48.995 57.6021C48.8505 57.5406 48.7798 57.5109 48.6855 57.3831Z" fill="#082206"/>
<path d="M53.7574 57.5039C53.8767 58.0099 53.7624 58.6189 53.7704 59.1399C53.7024 59.1304 53.6177 59.1257 53.5537 59.1019C53.4034 59.0462 53.4009 58.9617 53.3449 58.8257C53.2897 58.4389 53.3942 58.0289 53.3047 57.6514C53.4769 57.4972 53.5709 57.6427 53.7574 57.5039Z" fill="#0C5228"/>
<path d="M47.9914 15.3718C48.0334 15.2008 48.0344 15.1426 48.1607 15.0138C48.8427 14.9098 52.5249 14.9153 53.2164 15.1056C53.3297 15.2226 53.3302 15.3393 53.3302 15.5008C53.3304 15.8666 53.3502 16.6708 53.1339 16.9468C53.0319 17.0261 52.9374 17.0786 52.8079 17.0978C52.4914 17.1453 52.1322 17.0928 51.8109 17.0911C51.2347 17.0878 50.6574 17.1028 50.0814 17.1116C50.0362 17.3823 49.9667 17.6523 50.0489 17.9216C50.0927 17.8948 50.1144 17.8793 50.1592 17.8596C50.7224 17.6123 51.5357 17.6766 52.0947 17.9061C52.4155 18.0376 52.707 18.2315 52.9522 18.4766C53.1974 18.7217 53.3915 19.0131 53.5232 19.3338C53.8614 20.1568 53.7857 21.1196 53.4487 21.9303C53.1609 22.6223 52.6434 23.1763 51.9467 23.4633C51.0344 23.8388 49.8604 23.8408 48.9547 23.4478C48.4294 23.2198 47.7699 22.7668 47.5749 22.1991C47.5072 22.0021 47.4989 21.7991 47.5949 21.6101C47.8232 21.1623 48.3882 21.0181 48.8284 20.8811C49.2837 21.0541 49.6839 21.4238 50.1602 21.5286C50.4149 21.5848 50.7044 21.5448 50.9189 21.3921C51.1527 21.2256 51.2847 20.9546 51.3134 20.6728C51.3417 20.3973 51.2742 20.0861 51.0922 19.8708C50.6222 19.3148 49.9522 20.0113 49.4547 20.1716C49.1297 20.2766 48.7497 20.2891 48.4132 20.2453C48.1492 20.2108 47.8962 20.1221 47.7292 19.9063C47.6009 19.3738 47.8384 15.8946 47.9914 15.3718Z" fill="#57C579"/>
<path d="M47.9914 15.3716L48.0694 15.4228C48.2092 15.3063 48.2562 15.3316 48.4337 15.3311L48.5499 15.4036C48.5192 15.4466 48.4752 15.4823 48.4577 15.5318C48.3299 15.8948 48.4054 16.8633 48.3717 17.3188C48.3279 17.9126 48.0709 18.9266 48.1839 19.4746C48.2027 19.5653 48.2397 19.6386 48.3187 19.6896C48.5049 19.8091 48.8422 19.7276 49.0427 19.6646C49.7182 19.4521 50.5337 18.9126 51.2494 19.2866C51.5739 19.4561 51.7079 19.7848 51.7999 20.1178C51.8877 20.4361 51.8854 20.7313 51.8627 21.0573C51.5827 21.5161 51.2874 21.8948 50.7417 22.0298C50.0227 22.2076 49.4029 21.8268 48.8194 21.4618L48.7829 21.4388C48.4909 21.5608 48.2242 21.6806 47.9639 21.8621C48.4124 22.5296 48.9362 23.0061 49.7497 23.1608C50.5284 23.3091 51.4567 23.1971 52.1162 22.7343C52.6934 22.3296 53.0494 21.7033 53.1624 21.0128C53.2697 20.3573 53.1769 19.6611 52.7737 19.1178C52.6046 18.8897 52.3913 18.6981 52.1465 18.5542C51.9017 18.4104 51.6305 18.3174 51.3489 18.2808C50.6847 18.1918 50.0427 18.4048 49.4287 18.6313C49.4302 18.2768 49.4269 17.9373 49.5107 17.5903C49.5148 17.6053 49.5188 17.6203 49.5224 17.6353C49.5662 17.8146 49.5582 17.9553 49.5339 18.1368L49.5897 18.2128L49.6289 18.2013C49.759 18.1648 49.8931 18.1444 50.0282 18.1406C50.0867 18.0311 50.0842 18.0406 50.0489 17.9213C50.0927 17.8946 50.1144 17.8791 50.1592 17.8593C50.7224 17.6121 51.5357 17.6763 52.0947 17.9058C52.4155 18.0373 52.707 18.2313 52.9522 18.4764C53.1974 18.7215 53.3915 19.0129 53.5232 19.3336C53.8614 20.1566 53.7857 21.1193 53.4487 21.9301C53.1609 22.6221 52.6434 23.1761 51.9467 23.4631C51.0344 23.8386 49.8604 23.8406 48.9547 23.4476C48.4294 23.2196 47.7699 22.7666 47.5749 22.1988C47.5072 22.0018 47.4989 21.7988 47.5949 21.6098C47.8232 21.1621 48.3882 21.0178 48.8284 20.8808C49.2837 21.0538 49.6839 21.4236 50.1602 21.5283C50.4149 21.5846 50.7044 21.5446 50.9189 21.3918C51.1527 21.2253 51.2847 20.9543 51.3134 20.6726C51.3417 20.3971 51.2742 20.0858 51.0922 19.8706C50.6222 19.3146 49.9522 20.0111 49.4547 20.1713C49.1297 20.2763 48.7497 20.2888 48.4132 20.2451C48.1492 20.2106 47.8962 20.1218 47.7292 19.9061C47.6009 19.3736 47.8384 15.8943 47.9914 15.3716Z" fill="#0C5228"/>
<path d="M47.9922 15.3718C48.0342 15.2008 48.0352 15.1426 48.1614 15.0138C48.8434 14.9098 52.5257 14.9153 53.2172 15.1056C53.3304 15.2226 53.3309 15.3393 53.3309 15.5008C53.3312 15.8666 53.3509 16.6708 53.1347 16.9468C53.0327 17.0261 52.9382 17.0786 52.8087 17.0978C52.4922 17.1453 52.1329 17.0928 51.8117 17.0911C51.2354 17.0878 50.6582 17.1028 50.0822 17.1116C50.0369 17.3823 49.9674 17.6523 50.0497 17.9216C50.0849 18.0408 50.0874 18.0316 50.0289 18.1408C49.8939 18.1446 49.7598 18.165 49.6297 18.2016L49.5904 18.2131L49.5347 18.1371C49.5589 17.9556 49.5669 17.8148 49.5232 17.6353C49.5195 17.6203 49.5156 17.6054 49.5114 17.5906C49.4952 17.2456 49.5664 16.8906 49.6137 16.5491C50.6682 16.5551 51.7512 16.5241 52.8017 16.6066L52.8192 15.4068C51.3994 15.3813 49.9687 15.4991 48.5507 15.4041L48.4344 15.3313C48.2569 15.3318 48.2099 15.3063 48.0702 15.4231L47.9922 15.3718Z" fill="url(#paint0_linear_7235_31154)"/>
<path d="M43.6556 14.7073C43.7189 14.701 43.7796 14.6963 43.8434 14.6948C44.6616 14.6738 45.4746 14.8863 46.0771 15.4648C46.3057 15.6808 46.4891 15.9402 46.6167 16.2277C46.7442 16.5153 46.8134 16.8253 46.8201 17.1398C46.8286 17.8393 46.5131 18.3785 46.0396 18.8673L46.0706 18.8933C46.2936 19.0838 46.5176 19.2595 46.6729 19.513C47.0571 20.1403 47.0601 20.9803 46.8899 21.6765C46.8077 22.0165 46.6583 22.3365 46.4505 22.6179C46.2428 22.8992 45.9808 23.1362 45.6801 23.3148C44.8661 23.8033 43.7871 23.8468 42.8849 23.6138C42.1994 23.4368 41.4341 23.0378 41.0759 22.3983C40.8624 22.017 40.8226 21.635 40.9396 21.217C41.1206 20.9565 41.3746 20.6893 41.6484 20.525C42.6719 19.9115 43.0009 21.2858 43.7724 21.435C43.9096 21.4615 44.0354 21.4263 44.1504 21.35C44.3269 21.2333 44.4391 21.052 44.4819 20.8465C44.6671 19.9583 43.3886 20.3125 43.0456 19.7508C42.8711 19.4648 42.8994 18.9888 43.0001 18.675C43.2086 18.0268 43.6779 18.2755 44.1319 18.0145C44.2821 17.9283 44.3669 17.7663 44.4049 17.602C44.4484 17.4145 44.4421 17.213 44.3239 17.0535C44.2309 16.9278 44.0759 16.8538 43.9219 16.8415C43.5884 16.8148 43.4274 17.02 43.2074 17.2203C42.9554 17.4493 42.6764 17.6285 42.3196 17.6015C41.7759 17.56 41.3024 17.1273 40.9649 16.735C41.0566 16.4225 41.1699 16.1333 41.3634 15.869C41.9279 15.0978 42.7504 14.845 43.6556 14.7073Z" fill="#0C5228"/>
<path d="M43.535 15.2682C43.795 15.2505 44.0607 15.2277 44.3205 15.2545C44.9322 15.3177 45.533 15.6177 45.9182 16.102C46.195 16.45 46.34 16.8777 46.281 17.323C46.1795 18.0905 45.5987 18.4892 45.0245 18.9185C45.3337 19.1525 45.7095 19.301 45.9997 19.5592C46.3277 19.851 46.4705 20.3172 46.49 20.7447C46.5192 21.3782 46.3115 21.9967 45.881 22.4652C45.4097 22.9782 44.7535 23.2302 44.0655 23.2572C43.2627 23.2887 42.4887 23.0342 41.9002 22.479C41.6492 22.2422 41.3487 21.955 41.334 21.6007C41.426 21.3737 41.6105 21.2392 41.7922 21.086C42.6135 20.5215 42.7897 21.958 43.873 21.9522C44.2095 21.9502 44.602 21.8047 44.8237 21.548C45.017 21.3245 45.0802 21.0305 45.058 20.7415C45.0202 20.248 44.8022 19.9955 44.4465 19.689C44.155 19.6297 43.8565 19.6115 43.5632 19.5502C43.4835 19.4792 43.4765 19.473 43.4542 19.367C43.4067 19.1392 43.4292 18.917 43.5552 18.7195C43.7855 18.6247 44.0875 18.627 44.3355 18.605C44.444 18.5237 44.5505 18.4385 44.644 18.34C44.8732 18.0987 44.9997 17.7225 44.981 17.3905C44.9625 17.0662 44.812 16.7555 44.5557 16.553C44.306 16.3555 43.9762 16.275 43.6627 16.319C43.113 16.396 42.839 16.7242 42.5222 17.1482C42.2257 17.001 41.7327 16.852 41.5662 16.5722C41.5687 16.4732 41.5767 16.3997 41.6345 16.316C42.0252 15.7485 42.88 15.3775 43.535 15.2682Z" fill="#57C579"/>
<path d="M31.784 14.9466C31.8188 14.9446 31.8536 14.9429 31.8883 14.9416C32.253 14.9276 32.8093 14.8383 33.0955 15.1048C33.3303 16.0598 33.1915 17.9998 33.1913 19.0283C33.1905 20.5056 33.2763 22.0411 33.1413 23.5111L33.0945 23.4973L33.1098 23.5973L33.0595 23.6478C32.6875 23.7478 31.2483 23.7753 30.9455 23.6066C30.8265 23.4523 30.828 23.3993 30.8055 23.2028L30.8135 18.2136C30.5135 18.4073 30.1408 18.7033 29.7728 18.7028C29.616 18.7028 29.4978 18.6453 29.3998 18.5266C29.0808 18.1401 29.2963 17.1078 29.3438 16.6423C29.9413 15.9683 30.909 15.1786 31.784 14.9466Z" fill="#0C5228"/>
<path d="M31.9491 15.4522L32.6191 15.4502C32.7198 18.0354 32.6311 20.6577 32.6238 23.2462C32.2016 23.1984 31.7906 23.2029 31.3673 23.2124L31.3671 21.7517C31.3703 20.2967 31.4488 18.7969 31.3198 17.3492C30.7969 17.6338 30.2762 17.9225 29.7578 18.2152C29.8126 17.7972 29.8196 17.3672 29.8428 16.9459C30.3591 16.3397 31.1971 15.6952 31.9491 15.4522Z" fill="#57C579"/>
<path d="M31.8605 57.206C32.2397 57.1952 32.691 57.1357 33.0032 57.392C33.2097 57.8115 33.1437 64.952 33.073 65.7372C32.9745 65.8565 32.932 65.8972 32.777 65.9305C32.394 66.0125 31.2407 66.1247 30.916 65.8675C30.7587 65.743 30.772 65.5725 30.749 65.391L30.766 60.5497C30.494 60.7305 30.0755 61.0672 29.7375 61.065C29.573 61.064 29.4342 61.0255 29.3255 60.8967C28.998 60.509 29.2255 59.4432 29.2807 58.9722C29.8475 58.2532 30.963 57.3785 31.8605 57.206Z" fill="#0C5228"/>
<path d="M31.9584 57.7031C32.1566 57.6931 32.3131 57.6894 32.5059 57.7469C32.7139 58.0106 32.6071 64.6479 32.5796 65.5036C32.1269 65.4619 31.6661 65.4829 31.2119 65.4876L31.2019 63.9529C31.1984 62.5369 31.2604 61.1197 31.2374 59.7047C30.7014 59.9394 30.1871 60.3071 29.6899 60.6181C29.6876 60.1541 29.6926 59.7024 29.7434 59.2404C30.2716 58.6374 31.1824 57.8936 31.9584 57.7031Z" fill="#57C579"/>
<defs>
<linearGradient id="paint0_linear_7235_31154" x1="51.1862" y1="14.4961" x2="49.8634" y2="18.3131" gradientUnits="userSpaceOnUse">
<stop stop-color="#072807"/>
<stop offset="1" stop-color="#105825"/>
</linearGradient>
</defs>
</svg>
